<?xml version="1.0" standalone="no"?>
<!DOCTYPE svg PUBLIC "-//W3C//DTD SVG 20010904//EN"
 "http://www.w3.org/TR/2001/REC-SVG-20010904/DTD/svg10.dtd">
<svg version="1.0" xmlns="http://www.w3.org/2000/svg"
 width="301.000000pt" height="301.000000pt" viewBox="0 0 301.000000 301.000000"
 preserveAspectRatio="xMidYMid meet">
<metadata>
Created by potrace 1.11, written by Peter Selinger 2001-2013
</metadata>
<g transform="translate(0.000000,301.000000) scale(0.100000,-0.100000)"
fill="#000000" stroke="none">
<path d="M2630 2804 c-14 -2 -52 -9 -85 -15 -33 -6 -71 -13 -85 -16 -54 -9
-205 -65 -283 -104 -310 -154 -542 -418 -656 -746 -12 -34 -24 -72 -26 -83 -2
-12 -7 -30 -10 -40 -15 -48 -32 -203 -31 -292 1 -54 -2 -97 -6 -96 -4 2 -100
93 -214 203 -114 110 -229 222 -257 248 -28 27 -153 146 -277 266 -124 120
-250 241 -280 270 -30 29 -134 131 -231 227 -97 96 -180 174 -183 174 -3 0 -5
-582 -4 -1292 l3 -1293 155 0 155 0 1 912 c0 502 3 916 7 920 4 3 15 -2 26
-13 10 -10 128 -125 262 -254 134 -129 293 -283 354 -342 60 -58 139 -134 175
-169 291 -278 531 -510 616 -595 176 -176 268 -246 423 -324 76 -38 251 -104
251 -94 0 2 8 0 18 -5 18 -9 50 -16 142 -28 72 -10 312 -10 373 0 l47 8 0 156
0 156 -62 -8 c-89 -12 -274 -13 -328 -3 -129 24 -160 31 -215 50 -424 143
-688 502 -687 933 1 424 270 785 692 925 148 50 362 68 538 45 l62 -8 0 155 0
156 -32 7 c-37 8 -309 15 -348 9z"/>
</g>
</svg>
